<svg version="1.1" viewBox="0 0 100 100" xml:space="preserve" xmlns="http://www.w3.org/2000/svg"><rect x=".04995" y=".04995" width="99.9" height="99.9" fill="#2f2f2f"/><path class="UnoptimicedTransforms" transform="translate(0,10)" d="m55 27.5-0.6543-12.201c-0.21968-2.6781-2.1663-7.2252-4.3457-7.2988-2.1794 0.073644-4.126 4.6208-4.3457 7.2988l-0.6543 12.201" fill="#f89d3c" fill-opacity=".99637"/><path class="UnoptimicedTransforms" transform="translate(0,10)" d="m45 27.5c-3.9656-0.02736-5.0247 0.15376-5 2.5v10c-9.421 0.6426-16.93 2.6749-17.5 10v39.95l27.5 0.049949v-62.5m5 0c3.9656-0.02736 5.0247 0.15376 5 2.5v10c9.421 0.6426 16.93 2.6749 17.5 10v39.95l-27.5 0.049949v-62.5" fill="#ebebeb" fill-opacity=".99637"/><path x="30" y="60" width="40" height="40" d="m32 60h36a2 2 45 0 1 2 2v38h-40v-38a2 2 135 0 1 2-2z" fill="#c8c8c8"/></svg>
